<svg width="88" height="87" viewBox="0 0 88 87" fill="none" xmlns="http://www.w3.org/2000/svg">
<rect x="0.421143" y="40.4211" width="87.1579" height="1.68421" fill="#A9D9EF"/>
<rect x="0.842041" y="37.0527" width="86.3158" height="1.68421" fill="#A9D9EF"/>
<rect x="1.26318" y="33.6843" width="85.4737" height="1.68421" fill="#A9D9EF"/>
<rect x="2.10522" y="30.3158" width="83.7895" height="1.68421" fill="#A9D9EF"/>
<rect x="3.36841" y="26.9473" width="81.2632" height="1.68421" fill="#A9D9EF"/>
<rect x="5.05273" y="23.5789" width="77.8947" height="1.68421" fill="#A9D9EF"/>
<rect x="6.73682" y="20.2105" width="74.5263" height="1.68421" fill="#A9D9EF"/>
<rect x="8.84204" y="16.8421" width="69.8947" height="1.68421" fill="#A9D9EF"/>
<rect x="11.3684" y="13.4737" width="64.8421" height="1.68421" fill="#A9D9EF"/>
<rect x="14.7368" y="10.1052" width="58.1053" height="1.68421" fill="#A9D9EF"/>
<rect x="19.3684" y="6.73682" width="49.2632" height="1.68421" fill="#A9D9EF"/>
<rect x="24.842" y="3.36841" width="38.3158" height="1.68421" fill="#A9D9EF"/>
<rect x="34.5264" width="19.3684" height="1.68421" fill="#A9D9EF"/>
<rect y="43.7895" width="88" height="1.68421" fill="#A9D9EF"/>
<rect width="87.1579" height="1.26316" transform="matrix(1 0 0 -1 0.421143 48.421)" fill="#A9D9EF"/>
<rect width="86.3158" height="1.68421" transform="matrix(1 0 0 -1 0.842041 51.7894)" fill="#A9D9EF"/>
<rect width="85.4737" height="1.26316" transform="matrix(1 0 0 -1 1.26318 54.7368)" fill="#A9D9EF"/>
<rect width="83.7895" height="1.68421" transform="matrix(1 0 0 -1 2.10522 58.1053)" fill="#A9D9EF"/>
<rect width="81.2632" height="1.68421" transform="matrix(1 0 0 -1 3.36841 61.4737)" fill="#A9D9EF"/>
<rect width="77.8947" height="1.68421" transform="matrix(1 0 0 -1 5.05273 64.4211)" fill="#A9D9EF"/>
<rect width="74.9474" height="1.68421" transform="matrix(1 0 0 -1 6.73682 67.7895)" fill="#A9D9EF"/>
<rect width="69.4737" height="1.68421" transform="matrix(1 0 0 -1 8.84204 70.7368)" fill="#A9D9EF"/>
<rect width="64.8421" height="1.68421" transform="matrix(1 0 0 -1 11.3684 74.1052)" fill="#A9D9EF"/>
<rect width="58.1053" height="1.26316" transform="matrix(1 0 0 -1 14.7368 77.0527)" fill="#A9D9EF"/>
<rect width="49.2632" height="1.26316" transform="matrix(1 0 0 -1 19.3684 80)" fill="#A9D9EF"/>
<rect width="38.3158" height="1.26316" transform="matrix(1 0 0 -1 24.842 83.3684)" fill="#A9D9EF"/>
<rect width="19.3684" height="1.68421" transform="matrix(1 0 0 -1 34.5264 86.7368)" fill="#A9D9EF"/>
<rect width="88" height="1.68421" transform="matrix(1 0 0 -1 0 45.4737)" fill="#A9D9EF"/>
</svg>
